<svg xmlns="http://www.w3.org/2000/svg" viewBox="0 0 360 260" role="img" aria-labelledby="corrupt-url-light-title corrupt-url-light-desc">
  <title id="corrupt-url-light-title">Parichay corrupt url illustration</title>
  <desc id="corrupt-url-light-desc">A cut-paper stationery illustration with smoked lac, sandal, rosewood, and plum shapes.</desc>
  <defs>
    <pattern id="dots-22" width="8" height="8" patternUnits="userSpaceOnUse">
      <circle cx="2" cy="2" r="1.1" fill="#34231F" opacity=".2"/>
    </pattern>
    <filter id="paper-shadow-22" x="-10%" y="-10%" width="120%" height="120%">
      <feDropShadow dx="0" dy="8" stdDeviation="8" flood-color="#D9C4B4" flood-opacity=".28"/>
    </filter>
  </defs>
  <g filter="url(#paper-shadow-22)">
    
          
      <path d="M70 171 C108 126 122 89 170 74 C222 57 272 86 291 129 C252 124 231 147 202 171 C157 207 111 197 70 171Z" fill="#F2E3D2" opacity=".72"/>
      <path d="M53 190 C93 187 121 208 157 226 C120 235 83 231 47 210Z" fill="#C86757" opacity=".88"/>
      <path d="M228 55 C253 71 279 76 312 72 C292 103 268 119 235 121Z" fill="#E5A95D" opacity=".9"/>
    
          <path d="M105 154 L144 115 C164 95 194 94 214 114" fill="none" stroke="#4A314F" stroke-width="24" stroke-linecap="round"/>
          <path d="M249 106 L215 140 C194 162 164 162 143 142" fill="none" stroke="#A85A44" stroke-width="24" stroke-linecap="round"/>
          <circle cx="268" cy="176" r="40" fill="#C86757"/>
          <path d="M177 117 L202 143 M212 151 L238 178" stroke="#FFF7ED" stroke-width="11" stroke-linecap="round"/>
          <path d="M70 79 C96 70 121 72 145 84" stroke="#E5A95D" stroke-width="12" stroke-linecap="round"/>
        
  </g>
  <g opacity=".42">
    <circle cx="72" cy="56" r="5" fill="#6E2D3F"/>
    <circle cx="298" cy="197" r="4" fill="#E5A95D"/>
    <path d="M61 217 C87 205 109 205 139 222" fill="none" stroke="#A85A44" stroke-width="5" stroke-linecap="round"/>
  </g>
  <rect width="360" height="260" fill="url(#dots-22)" opacity=".34"/>
</svg>
